# xmcd CD database file
#
# Track frame offsets:
#	150
#	35700
#	73875
#	104475
#	141525
#	181800
#	212025
#	246075
#	282225
#	312280
#
# Disc length: 4469 seconds
#
# Revision: 0
# Processed by: cddbd v1.5.2PL0 Copyright (c) Steve Scherf et al.
# Submitted via: CDex 1.51
#
DISCID=9f11730a
DTITLE=The Miles Davis Quintet - The Columbia Recordings 1965-68
DYEAR=1900
DGENRE=Jazz
TTITLE0=Nefertiti
TTITLE1=Capricorn
TTITLE2=Hand Jive (first)
TTITLE3=Hand Jive (second)
TTITLE4=Hand Jive
TTITLE5=Madness (alternate)
TTITLE6=Madness
TTITLE7=Sweet Pea
TTITLE8=Fall
TTITLE9=Pinocchio (alternate)
EXTD=
EXTT0=
EXTT1=
EXTT2=
EXTT3=
EXTT4=
EXTT5=
EXTT6=
EXTT7=
EXTT8=
EXTT9=
PLAYORDER=
